<?xml version="1.0" encoding="iso-8859-1"?>
<!-- Generator: Adobe Illustrator 24.0.3, SVG Export Plug-In . SVG Version: 6.00 Build 0)  -->
<svg version="1.1" xmlns="http://www.w3.org/2000/svg" xmlns:xlink="http://www.w3.org/1999/xlink" x="0px" y="0px"
	 viewBox="0 0 64 64" style="enable-background:new 0 0 64 64;" xml:space="preserve">
<g id="send-email">
	<path style="fill:#ABD8C7;" d="M62.366,19.39c0,0.008,0.004,0.016,0,0.024L55.63,43.636l-9.189-9.861l-1.174,1.092l9.772,10.485
		c-0.147,0.151-0.346,0.249-0.566,0.249H14.519c-0.253,0-0.485-0.114-0.636-0.318c-0.106-0.139-0.143-0.302-0.147-0.469
		l15.562-10.97l-0.925-1.308l-14.022,9.886l6.495-23.357l15.778,14.339c0.448,0.387,1.015,0.587,1.581,0.587
		c0.448,0,0.896-0.122,1.284-0.375L62.366,19.39z"/>
	<g>
		<path style="fill:#9AC1B1;" d="M59.418,21.223l-5.671,20.392l1.883,2.021l6.736-24.221c0.004-0.008,0-0.016,0-0.024L59.418,21.223
			z"/>
		<path style="fill:#9AC1B1;" d="M34.18,33.404c0.448,0.387,1.015,0.587,1.581,0.587c0.422,0,0.843-0.113,1.214-0.337
			c-0.122-0.072-0.24-0.155-0.35-0.25L20.847,19.064l-0.493,1.774L34.18,33.404z"/>
	</g>
	<path style="fill:#47705D;" d="M0,37.98v1.601h11.161V37.98H0z M2.298,30.519v1.601h11.161v-1.601H2.298z M4.38,23.058v1.605
		h11.157v-1.605H4.38z M63.507,17.744c-0.456-0.603-1.153-0.945-1.911-0.945H21.642c-1.076,0-2.029,0.721-2.319,1.756l-7.119,25.598
		c-0.204,0.729-0.057,1.495,0.403,2.099c0.456,0.603,1.153,0.949,1.911,0.949h39.954c1.076,0,2.029-0.721,2.319-1.76l7.119-25.598
		C64.114,19.113,63.967,18.351,63.507,17.744z M60.927,18.4L38.634,32.263c-0.297,0.192-0.693,0.163-0.945-0.057L22.497,18.4H60.927
		z M62.366,19.415L55.63,43.636l-9.189-9.861l-1.174,1.092l9.772,10.485c-0.147,0.151-0.346,0.249-0.566,0.249H14.519
		c-0.253,0-0.485-0.114-0.636-0.318c-0.106-0.139-0.143-0.302-0.147-0.469l15.562-10.97l-0.925-1.308l-14.022,9.886l6.495-23.357
		l15.778,14.339c0.448,0.387,1.015,0.587,1.581,0.587c0.448,0,0.896-0.122,1.284-0.375L62.366,19.39
		C62.366,19.398,62.37,19.407,62.366,19.415z"/>
</g>
<g id="Layer_1">
</g>
</svg>
